<?xml version="1.0" encoding="utf-8" standalone="no"?>
<!DOCTYPE svg PUBLIC "-//W3C//DTD SVG 1.1//EN"
  "http://www.w3.org/Graphics/SVG/1.1/DTD/svg11.dtd">
<!-- Created with matplotlib (http://matplotlib.org/) -->
<svg height="432pt" version="1.1" viewBox="0 0 864 432" width="864pt" xmlns="http://www.w3.org/2000/svg" xmlns:xlink="http://www.w3.org/1999/xlink">
 <defs>
  <style type="text/css">
*{stroke-linecap:butt;stroke-linejoin:round;}
  </style>
 </defs>
 <g id="figure_1">
  <g id="patch_1">
   <path d="M 0 432 
L 864 432 
L 864 0 
L 0 0 
z
" style="fill:none;"/>
  </g>
  <g id="axes_1">
   <g id="patch_2">
    <path d="M 49.97 192.533426 
L 847.17 192.533426 
L 847.17 25.92 
L 49.97 25.92 
z
" style="fill:none;"/>
   </g>
   <g id="line2d_1">
    <path clip-path="url(#p2064481b4b)" d="M 72.114444 187.56623 
L 94.258889 182.649471 
L 138.547778 173.482274 
L 315.703333 164.289622 
L 581.436667 173.547322 
L 847.17 174.943397 
" style="fill:none;stroke:#0000ff;stroke-linecap:square;stroke-width:2;"/>
    <defs>
     <path d="M 0 -3 
L -3 3 
L 3 3 
z
" id="mde068f3c8c" style="stroke:#000000;stroke-linejoin:miter;"/>
    </defs>
    <g clip-path="url(#p2064481b4b)">
     <use style="fill:#0000ff;stroke:#000000;stroke-linejoin:miter;" x="72.114444" xlink:href="#mde068f3c8c" y="187.56623"/>
     <use style="fill:#0000ff;stroke:#000000;stroke-linejoin:miter;" x="94.258889" xlink:href="#mde068f3c8c" y="182.649471"/>
     <use style="fill:#0000ff;stroke:#000000;stroke-linejoin:miter;" x="138.547778" xlink:href="#mde068f3c8c" y="173.482274"/>
     <use style="fill:#0000ff;stroke:#000000;stroke-linejoin:miter;" x="315.703333" xlink:href="#mde068f3c8c" y="164.289622"/>
     <use style="fill:#0000ff;stroke:#000000;stroke-linejoin:miter;" x="581.436667" xlink:href="#mde068f3c8c" y="173.547322"/>
     <use style="fill:#0000ff;stroke:#000000;stroke-linejoin:miter;" x="847.17" xlink:href="#mde068f3c8c" y="174.943397"/>
    </g>
   </g>
   <g id="matplotlib.axis_1">
    <g id="xtick_1">
     <g id="line2d_2">
      <path clip-path="url(#p2064481b4b)" d="M 72.114444 192.533426 
L 72.114444 25.92 
" style="fill:none;stroke:#b0b0b0;stroke-dasharray:0.8,1.32;stroke-dashoffset:0;stroke-width:0.8;"/>
     </g>
     <g id="line2d_3">
      <defs>
       <path d="M 0 0 
L 0 3.5 
" id="m514be0b212" style="stroke:#000000;stroke-width:0.8;"/>
      </defs>
      <g>
       <use style="stroke:#000000;stroke-width:0.8;" x="72.114444" xlink:href="#m514be0b212" y="192.533426"/>
      </g>
     </g>
     <g id="text_1">
      <!-- 1 -->
      <defs>
       <path d="M 13.1875 8.296875 
L 28.515625 8.296875 
L 28.515625 64.015625 
L 12.015625 60.296875 
L 12.015625 69.28125 
L 28.421875 72.90625 
L 38.28125 72.90625 
L 38.28125 8.296875 
L 53.421875 8.296875 
L 53.421875 0 
L 13.1875 0 
z
" id="DejaVuSansMono-31"/>
      </defs>
      <g transform="translate(69.104288 207.184988)scale(0.1 -0.1)">
       <use xlink:href="#DejaVuSansMono-31"/>
      </g>
     </g>
    </g>
    <g id="xtick_2">
     <g id="line2d_4">
      <path clip-path="url(#p2064481b4b)" d="M 94.258889 192.533426 
L 94.258889 25.92 
" style="fill:none;stroke:#b0b0b0;stroke-dasharray:0.8,1.32;stroke-dashoffset:0;stroke-width:0.8;"/>
     </g>
     <g id="line2d_5">
      <g>
       <use style="stroke:#000000;stroke-width:0.8;" x="94.258889" xlink:href="#m514be0b212" y="192.533426"/>
      </g>
     </g>
     <g id="text_2">
      <!-- 2 -->
      <defs>
       <path d="M 18.21875 8.296875 
L 51.703125 8.296875 
L 51.703125 0 
L 7.421875 0 
L 7.421875 8.296875 
Q 16.546875 17.921875 23.375 25.296875 
Q 30.21875 32.671875 32.8125 35.6875 
Q 37.703125 41.65625 39.40625 45.34375 
Q 41.109375 49.03125 41.109375 52.875 
Q 41.109375 58.984375 37.515625 62.453125 
Q 33.9375 65.921875 27.6875 65.921875 
Q 23.25 65.921875 18.359375 64.3125 
Q 13.484375 62.703125 8.015625 59.421875 
L 8.015625 69.390625 
Q 13.03125 71.78125 17.890625 73 
Q 22.75 74.21875 27.484375 74.21875 
Q 38.1875 74.21875 44.703125 68.53125 
Q 51.21875 62.84375 51.21875 53.609375 
Q 51.21875 48.921875 49.046875 44.234375 
Q 46.875 39.546875 42 33.890625 
Q 39.265625 30.71875 34.0625 25.09375 
Q 28.859375 19.484375 18.21875 8.296875 
z
" id="DejaVuSansMono-32"/>
      </defs>
      <g transform="translate(91.248733 207.184988)scale(0.1 -0.1)">
       <use xlink:href="#DejaVuSansMono-32"/>
      </g>
     </g>
    </g>
    <g id="xtick_3">
     <g id="line2d_6">
      <path clip-path="url(#p2064481b4b)" d="M 138.547778 192.533426 
L 138.547778 25.92 
" style="fill:none;stroke:#b0b0b0;stroke-dasharray:0.8,1.32;stroke-dashoffset:0;stroke-width:0.8;"/>
     </g>
     <g id="line2d_7">
      <g>
       <use style="stroke:#000000;stroke-width:0.8;" x="138.547778" xlink:href="#m514be0b212" y="192.533426"/>
      </g>
     </g>
     <g id="text_3">
      <!-- 4 -->
      <defs>
       <path d="M 35.890625 63.921875 
L 12.890625 25.390625 
L 35.890625 25.390625 
z
M 34.28125 72.90625 
L 45.703125 72.90625 
L 45.703125 25.390625 
L 55.421875 25.390625 
L 55.421875 17.390625 
L 45.703125 17.390625 
L 45.703125 0 
L 35.890625 0 
L 35.890625 17.390625 
L 4.984375 17.390625 
L 4.984375 26.703125 
z
" id="DejaVuSansMono-34"/>
      </defs>
      <g transform="translate(135.537622 207.184988)scale(0.1 -0.1)">
       <use xlink:href="#DejaVuSansMono-34"/>
      </g>
     </g>
    </g>
    <g id="xtick_4">
     <g id="line2d_8">
      <path clip-path="url(#p2064481b4b)" d="M 315.703333 192.533426 
L 315.703333 25.92 
" style="fill:none;stroke:#b0b0b0;stroke-dasharray:0.8,1.32;stroke-dashoffset:0;stroke-width:0.8;"/>
     </g>
     <g id="line2d_9">
      <g>
       <use style="stroke:#000000;stroke-width:0.8;" x="315.703333" xlink:href="#m514be0b212" y="192.533426"/>
      </g>
     </g>
     <g id="text_4">
      <!-- 12 -->
      <g transform="translate(309.683021 207.184988)scale(0.1 -0.1)">
       <use xlink:href="#DejaVuSansMono-31"/>
       <use x="60.205078" xlink:href="#DejaVuSansMono-32"/>
      </g>
     </g>
    </g>
    <g id="xtick_5">
     <g id="line2d_10">
      <path clip-path="url(#p2064481b4b)" d="M 581.436667 192.533426 
L 581.436667 25.92 
" style="fill:none;stroke:#b0b0b0;stroke-dasharray:0.8,1.32;stroke-dashoffset:0;stroke-width:0.8;"/>
     </g>
     <g id="line2d_11">
      <g>
       <use style="stroke:#000000;stroke-width:0.8;" x="581.436667" xlink:href="#m514be0b212" y="192.533426"/>
      </g>
     </g>
     <g id="text_5">
      <!-- 24 -->
      <g transform="translate(575.416354 207.184988)scale(0.1 -0.1)">
       <use xlink:href="#DejaVuSansMono-32"/>
       <use x="60.205078" xlink:href="#DejaVuSansMono-34"/>
      </g>
     </g>
    </g>
    <g id="xtick_6">
     <g id="line2d_12">
      <path clip-path="url(#p2064481b4b)" d="M 847.17 192.533426 
L 847.17 25.92 
" style="fill:none;stroke:#b0b0b0;stroke-dasharray:0.8,1.32;stroke-dashoffset:0;stroke-width:0.8;"/>
     </g>
     <g id="line2d_13">
      <g>
       <use style="stroke:#000000;stroke-width:0.8;" x="847.17" xlink:href="#m514be0b212" y="192.533426"/>
      </g>
     </g>
     <g id="text_6">
      <!-- 36 -->
      <defs>
       <path d="M 37.890625 39.015625 
Q 45.0625 37.109375 48.875 32.25 
Q 52.6875 27.390625 52.6875 20.125 
Q 52.6875 10.0625 45.921875 4.3125 
Q 39.15625 -1.421875 27.203125 -1.421875 
Q 22.171875 -1.421875 16.9375 -0.484375 
Q 11.71875 0.4375 6.6875 2.203125 
L 6.6875 12.015625 
Q 11.671875 9.421875 16.5 8.15625 
Q 21.34375 6.890625 26.125 6.890625 
Q 34.234375 6.890625 38.578125 10.546875 
Q 42.921875 14.203125 42.921875 21.09375 
Q 42.921875 27.4375 38.578125 31.171875 
Q 34.234375 34.90625 26.8125 34.90625 
L 19.28125 34.90625 
L 19.28125 43.015625 
L 26.8125 43.015625 
Q 33.59375 43.015625 37.40625 45.984375 
Q 41.21875 48.96875 41.21875 54.296875 
Q 41.21875 59.90625 37.671875 62.90625 
Q 34.125 65.921875 27.59375 65.921875 
Q 23.25 65.921875 18.609375 64.9375 
Q 13.96875 63.96875 8.890625 62.015625 
L 8.890625 71.09375 
Q 14.796875 72.65625 19.40625 73.4375 
Q 24.03125 74.21875 27.59375 74.21875 
Q 38.234375 74.21875 44.609375 68.875 
Q 50.984375 63.53125 50.984375 54.6875 
Q 50.984375 48.6875 47.625 44.671875 
Q 44.28125 40.671875 37.890625 39.015625 
z
" id="DejaVuSansMono-33"/>
       <path d="M 48.390625 71.296875 
L 48.390625 62.203125 
Q 45.3125 64.015625 41.84375 64.96875 
Q 38.375 65.921875 34.625 65.921875 
Q 25.25 65.921875 20.40625 58.859375 
Q 15.578125 51.8125 15.578125 38.09375 
Q 17.921875 42.96875 22.0625 45.578125 
Q 26.21875 48.1875 31.59375 48.1875 
Q 42.140625 48.1875 47.921875 41.71875 
Q 53.71875 35.25 53.71875 23.390625 
Q 53.71875 11.578125 47.75 5.078125 
Q 41.796875 -1.421875 31 -1.421875 
Q 18.3125 -1.421875 12.40625 7.6875 
Q 6.5 16.796875 6.5 36.375 
Q 6.5 54.828125 13.59375 64.515625 
Q 20.703125 74.21875 34.1875 74.21875 
Q 37.796875 74.21875 41.40625 73.453125 
Q 45.015625 72.703125 48.390625 71.296875 
z
M 30.8125 40.484375 
Q 24.515625 40.484375 20.890625 35.9375 
Q 17.28125 31.390625 17.28125 23.390625 
Q 17.28125 15.375 20.890625 10.828125 
Q 24.515625 6.296875 30.8125 6.296875 
Q 37.359375 6.296875 40.671875 10.609375 
Q 44 14.9375 44 23.390625 
Q 44 31.890625 40.671875 36.1875 
Q 37.359375 40.484375 30.8125 40.484375 
z
" id="DejaVuSansMono-36"/>
      </defs>
      <g transform="translate(841.149688 207.184988)scale(0.1 -0.1)">
       <use xlink:href="#DejaVuSansMono-33"/>
       <use x="60.205078" xlink:href="#DejaVuSansMono-36"/>
      </g>
     </g>
    </g>
   </g>
   <g id="matplotlib.axis_2">
    <g id="ytick_1">
     <g id="line2d_14">
      <path clip-path="url(#p2064481b4b)" d="M 49.97 192.533426 
L 847.17 192.533426 
" style="fill:none;stroke:#b0b0b0;stroke-dasharray:0.8,1.32;stroke-dashoffset:0;stroke-width:0.8;"/>
     </g>
     <g id="line2d_15">
      <defs>
       <path d="M 0 0 
L -3.5 0 
" id="m3275b6ac5e" style="stroke:#000000;stroke-width:0.8;"/>
      </defs>
      <g>
       <use style="stroke:#000000;stroke-width:0.8;" x="49.97" xlink:href="#m3275b6ac5e" y="192.533426"/>
      </g>
     </g>
     <g id="text_7">
      <!-- 0 -->
      <defs>
       <path d="M 23.578125 36.625 
Q 23.578125 39.3125 25.453125 41.265625 
Q 27.34375 43.21875 29.984375 43.21875 
Q 32.71875 43.21875 34.671875 41.265625 
Q 36.625 39.3125 36.625 36.625 
Q 36.625 33.890625 34.6875 31.984375 
Q 32.765625 30.078125 29.984375 30.078125 
Q 27.25 30.078125 25.40625 31.9375 
Q 23.578125 33.796875 23.578125 36.625 
z
M 30.078125 66.40625 
Q 23.1875 66.40625 19.796875 58.984375 
Q 16.40625 51.5625 16.40625 36.375 
Q 16.40625 21.234375 19.796875 13.8125 
Q 23.1875 6.390625 30.078125 6.390625 
Q 37.015625 6.390625 40.40625 13.8125 
Q 43.796875 21.234375 43.796875 36.375 
Q 43.796875 51.5625 40.40625 58.984375 
Q 37.015625 66.40625 30.078125 66.40625 
z
M 30.078125 74.21875 
Q 41.75 74.21875 47.734375 64.640625 
Q 53.71875 55.078125 53.71875 36.375 
Q 53.71875 17.71875 47.734375 8.140625 
Q 41.75 -1.421875 30.078125 -1.421875 
Q 18.40625 -1.421875 12.453125 8.140625 
Q 6.5 17.71875 6.5 36.375 
Q 6.5 55.078125 12.453125 64.640625 
Q 18.40625 74.21875 30.078125 74.21875 
z
" id="DejaVuSansMono-30"/>
      </defs>
      <g transform="translate(36.949688 196.359207)scale(0.1 -0.1)">
       <use xlink:href="#DejaVuSansMono-30"/>
      </g>
     </g>
    </g>
    <g id="ytick_2">
     <g id="line2d_16">
      <path clip-path="url(#p2064481b4b)" d="M 49.97 150.880069 
L 847.17 150.880069 
" style="fill:none;stroke:#b0b0b0;stroke-dasharray:0.8,1.32;stroke-dashoffset:0;stroke-width:0.8;"/>
     </g>
     <g id="line2d_17">
      <g>
       <use style="stroke:#000000;stroke-width:0.8;" x="49.97" xlink:href="#m3275b6ac5e" y="150.880069"/>
      </g>
     </g>
     <g id="text_8">
      <!-- 50 -->
      <defs>
       <path d="M 10.109375 72.90625 
L 47.015625 72.90625 
L 47.015625 64.59375 
L 19.09375 64.59375 
L 19.09375 46.6875 
Q 21.1875 47.46875 23.3125 47.828125 
Q 25.4375 48.1875 27.59375 48.1875 
Q 38.921875 48.1875 45.5625 41.5 
Q 52.203125 34.8125 52.203125 23.390625 
Q 52.203125 11.859375 45.234375 5.21875 
Q 38.28125 -1.421875 26.21875 -1.421875 
Q 20.40625 -1.421875 15.59375 -0.640625 
Q 10.796875 0.140625 6.984375 1.703125 
L 6.984375 11.71875 
Q 11.46875 9.28125 16.015625 8.078125 
Q 20.5625 6.890625 25.296875 6.890625 
Q 33.453125 6.890625 37.859375 11.1875 
Q 42.28125 15.484375 42.28125 23.390625 
Q 42.28125 31.203125 37.71875 35.546875 
Q 33.15625 39.890625 25 39.890625 
Q 21.046875 39.890625 17.28125 38.984375 
Q 13.53125 38.09375 10.109375 36.28125 
z
" id="DejaVuSansMono-35"/>
      </defs>
      <g transform="translate(30.929375 154.705851)scale(0.1 -0.1)">
       <use xlink:href="#DejaVuSansMono-35"/>
       <use x="60.205078" xlink:href="#DejaVuSansMono-30"/>
      </g>
     </g>
    </g>
    <g id="ytick_3">
     <g id="line2d_18">
      <path clip-path="url(#p2064481b4b)" d="M 49.97 109.226713 
L 847.17 109.226713 
" style="fill:none;stroke:#b0b0b0;stroke-dasharray:0.8,1.32;stroke-dashoffset:0;stroke-width:0.8;"/>
     </g>
     <g id="line2d_19">
      <g>
       <use style="stroke:#000000;stroke-width:0.8;" x="49.97" xlink:href="#m3275b6ac5e" y="109.226713"/>
      </g>
     </g>
     <g id="text_9">
      <!-- 100 -->
      <g transform="translate(24.909063 113.052494)scale(0.1 -0.1)">
       <use xlink:href="#DejaVuSansMono-31"/>
       <use x="60.205078" xlink:href="#DejaVuSansMono-30"/>
       <use x="120.410156" xlink:href="#DejaVuSansMono-30"/>
      </g>
     </g>
    </g>
    <g id="ytick_4">
     <g id="line2d_20">
      <path clip-path="url(#p2064481b4b)" d="M 49.97 67.573356 
L 847.17 67.573356 
" style="fill:none;stroke:#b0b0b0;stroke-dasharray:0.8,1.32;stroke-dashoffset:0;stroke-width:0.8;"/>
     </g>
     <g id="line2d_21">
      <g>
       <use style="stroke:#000000;stroke-width:0.8;" x="49.97" xlink:href="#m3275b6ac5e" y="67.573356"/>
      </g>
     </g>
     <g id="text_10">
      <!-- 150 -->
      <g transform="translate(24.909063 71.399138)scale(0.1 -0.1)">
       <use xlink:href="#DejaVuSansMono-31"/>
       <use x="60.205078" xlink:href="#DejaVuSansMono-35"/>
       <use x="120.410156" xlink:href="#DejaVuSansMono-30"/>
      </g>
     </g>
    </g>
    <g id="ytick_5">
     <g id="line2d_22">
      <path clip-path="url(#p2064481b4b)" d="M 49.97 25.92 
L 847.17 25.92 
" style="fill:none;stroke:#b0b0b0;stroke-dasharray:0.8,1.32;stroke-dashoffset:0;stroke-width:0.8;"/>
     </g>
     <g id="line2d_23">
      <g>
       <use style="stroke:#000000;stroke-width:0.8;" x="49.97" xlink:href="#m3275b6ac5e" y="25.92"/>
      </g>
     </g>
     <g id="text_11">
      <!-- 200 -->
      <g transform="translate(24.909063 29.745781)scale(0.1 -0.1)">
       <use xlink:href="#DejaVuSansMono-32"/>
       <use x="60.205078" xlink:href="#DejaVuSansMono-30"/>
       <use x="120.410156" xlink:href="#DejaVuSansMono-30"/>
      </g>
     </g>
    </g>
    <g id="text_12">
     <!-- GFLOPS -->
     <defs>
      <path d="M 53.90625 6 
Q 49.953125 2.34375 45 0.453125 
Q 40.046875 -1.421875 34.28125 -1.421875 
Q 20.40625 -1.421875 12.6875 8.515625 
Q 4.984375 18.453125 4.984375 36.375 
Q 4.984375 54.25 12.796875 64.234375 
Q 20.609375 74.21875 34.515625 74.21875 
Q 39.109375 74.21875 43.3125 72.921875 
Q 47.515625 71.625 51.421875 69 
L 51.421875 58.890625 
Q 47.46875 62.640625 43.3125 64.421875 
Q 39.15625 66.21875 34.515625 66.21875 
Q 24.90625 66.21875 20.09375 58.765625 
Q 15.28125 51.3125 15.28125 36.375 
Q 15.28125 21.1875 19.9375 13.890625 
Q 24.609375 6.59375 34.28125 6.59375 
Q 37.546875 6.59375 40.015625 7.34375 
Q 42.484375 8.109375 44.484375 9.71875 
L 44.484375 29.296875 
L 33.890625 29.296875 
L 33.890625 37.40625 
L 53.90625 37.40625 
z
" id="DejaVuSansMono-47"/>
      <path d="M 11.375 72.90625 
L 54.296875 72.90625 
L 54.296875 64.59375 
L 21.296875 64.59375 
L 21.296875 43.109375 
L 51.21875 43.109375 
L 51.21875 34.8125 
L 21.296875 34.8125 
L 21.296875 0 
L 11.375 0 
z
" id="DejaVuSansMono-46"/>
      <path d="M 10.5 72.90625 
L 20.40625 72.90625 
L 20.40625 8.296875 
L 55.609375 8.296875 
L 55.609375 0 
L 10.5 0 
z
" id="DejaVuSansMono-4c"/>
      <path d="M 44.1875 36.375 
Q 44.1875 52.4375 40.890625 59.328125 
Q 37.59375 66.21875 30.078125 66.21875 
Q 22.609375 66.21875 19.3125 59.328125 
Q 16.015625 52.4375 16.015625 36.375 
Q 16.015625 20.359375 19.3125 13.46875 
Q 22.609375 6.59375 30.078125 6.59375 
Q 37.59375 6.59375 40.890625 13.453125 
Q 44.1875 20.3125 44.1875 36.375 
z
M 54.5 36.375 
Q 54.5 17.328125 48.46875 7.953125 
Q 42.4375 -1.421875 30.078125 -1.421875 
Q 17.71875 -1.421875 11.71875 7.90625 
Q 5.71875 17.234375 5.71875 36.375 
Q 5.71875 55.46875 11.75 64.84375 
Q 17.78125 74.21875 30.078125 74.21875 
Q 42.4375 74.21875 48.46875 64.84375 
Q 54.5 55.46875 54.5 36.375 
z
" id="DejaVuSansMono-4f"/>
      <path d="M 19.484375 64.796875 
L 19.484375 37.40625 
L 30.90625 37.40625 
Q 37.75 37.40625 41.578125 41.015625 
Q 45.40625 44.625 45.40625 51.125 
Q 45.40625 57.625 41.59375 61.203125 
Q 37.796875 64.796875 30.90625 64.796875 
z
M 9.625 72.90625 
L 30.90625 72.90625 
Q 43.109375 72.90625 49.40625 67.359375 
Q 55.71875 61.8125 55.71875 51.125 
Q 55.71875 40.328125 49.4375 34.8125 
Q 43.171875 29.296875 30.90625 29.296875 
L 19.484375 29.296875 
L 19.484375 0 
L 9.625 0 
z
" id="DejaVuSansMono-50"/>
      <path d="M 49.421875 70.40625 
L 49.421875 60.40625 
Q 44.921875 63.28125 40.40625 64.75 
Q 35.890625 66.21875 31.296875 66.21875 
Q 24.3125 66.21875 20.265625 62.96875 
Q 16.21875 59.71875 16.21875 54.203125 
Q 16.21875 49.359375 18.875 46.8125 
Q 21.53125 44.28125 28.8125 42.578125 
L 33.984375 41.40625 
Q 44.234375 39.015625 48.921875 33.890625 
Q 53.609375 28.765625 53.609375 19.921875 
Q 53.609375 9.515625 47.15625 4.046875 
Q 40.71875 -1.421875 28.421875 -1.421875 
Q 23.296875 -1.421875 18.109375 -0.3125 
Q 12.9375 0.78125 7.71875 2.984375 
L 7.71875 13.484375 
Q 13.328125 9.90625 18.328125 8.25 
Q 23.34375 6.59375 28.421875 6.59375 
Q 35.890625 6.59375 40.03125 9.9375 
Q 44.1875 13.28125 44.1875 19.28125 
Q 44.1875 24.75 41.328125 27.625 
Q 38.484375 30.515625 31.390625 32.078125 
L 26.125 33.296875 
Q 15.96875 35.59375 11.375 40.234375 
Q 6.78125 44.875 6.78125 52.6875 
Q 6.78125 62.453125 13.34375 68.328125 
Q 19.921875 74.21875 30.8125 74.21875 
Q 35.015625 74.21875 39.640625 73.265625 
Q 44.28125 72.3125 49.421875 70.40625 
z
" id="DejaVuSansMono-53"/>
     </defs>
     <g transform="translate(18.829375 127.28765)rotate(-90)scale(0.1 -0.1)">
      <use xlink:href="#DejaVuSansMono-47"/>
      <use x="60.205078" xlink:href="#DejaVuSansMono-46"/>
      <use x="120.410156" xlink:href="#DejaVuSansMono-4c"/>
      <use x="180.615234" xlink:href="#DejaVuSansMono-4f"/>
      <use x="240.820312" xlink:href="#DejaVuSansMono-50"/>
      <use x="301.025391" xlink:href="#DejaVuSansMono-53"/>
     </g>
    </g>
   </g>
   <g id="line2d_24">
    <path clip-path="url(#p2064481b4b)" d="M 72.114444 185.966872 
L 94.258889 179.457086 
L 138.547778 166.847941 
L 315.703333 129.63328 
L 581.436667 80.785859 
L 847.17 46.73842 
" style="fill:none;stroke:#ff0000;stroke-linecap:square;stroke-width:2;"/>
    <defs>
     <path d="M -0 3 
L 3 -3 
L -3 -3 
z
" id="m2403e028ae" style="stroke:#000000;stroke-linejoin:miter;"/>
    </defs>
    <g clip-path="url(#p2064481b4b)">
     <use style="fill:#ff0000;stroke:#000000;stroke-linejoin:miter;" x="72.114444" xlink:href="#m2403e028ae" y="185.966872"/>
     <use style="fill:#ff0000;stroke:#000000;stroke-linejoin:miter;" x="94.258889" xlink:href="#m2403e028ae" y="179.457086"/>
     <use style="fill:#ff0000;stroke:#000000;stroke-linejoin:miter;" x="138.547778" xlink:href="#m2403e028ae" y="166.847941"/>
     <use style="fill:#ff0000;stroke:#000000;stroke-linejoin:miter;" x="315.703333" xlink:href="#m2403e028ae" y="129.63328"/>
     <use style="fill:#ff0000;stroke:#000000;stroke-linejoin:miter;" x="581.436667" xlink:href="#m2403e028ae" y="80.785859"/>
     <use style="fill:#ff0000;stroke:#000000;stroke-linejoin:miter;" x="847.17" xlink:href="#m2403e028ae" y="46.73842"/>
    </g>
   </g>
   <g id="patch_3">
    <path d="M 49.97 192.533426 
L 49.97 25.92 
" style="fill:none;stroke:#000000;stroke-linecap:square;stroke-linejoin:miter;stroke-width:0.8;"/>
   </g>
   <g id="patch_4">
    <path d="M 847.17 192.533426 
L 847.17 25.92 
" style="fill:none;stroke:#000000;stroke-linecap:square;stroke-linejoin:miter;stroke-width:0.8;"/>
   </g>
   <g id="patch_5">
    <path d="M 49.97 192.533426 
L 847.17 192.533426 
" style="fill:none;stroke:#000000;stroke-linecap:square;stroke-linejoin:miter;stroke-width:0.8;"/>
   </g>
   <g id="patch_6">
    <path d="M 49.97 25.92 
L 847.17 25.92 
" style="fill:none;stroke:#000000;stroke-linecap:square;stroke-linejoin:miter;stroke-width:0.8;"/>
   </g>
   <g id="legend_1">
    <g id="patch_7">
     <path d="M 58.97 65.52 
L 265.559063 65.52 
Q 267.559063 65.52 267.559063 63.52 
L 267.559063 34.92 
Q 267.559063 32.92 265.559063 32.92 
L 58.97 32.92 
Q 56.97 32.92 56.97 34.92 
L 56.97 63.52 
Q 56.97 65.52 58.97 65.52 
z
" style="fill:#4c4c4c;opacity:0.5;stroke:#4c4c4c;stroke-linejoin:miter;"/>
    </g>
    <g id="patch_8">
     <path d="M 56.97 63.52 
L 263.559063 63.52 
Q 265.559063 63.52 265.559063 61.52 
L 265.559063 32.92 
Q 265.559063 30.92 263.559063 30.92 
L 56.97 30.92 
Q 54.97 30.92 54.97 32.92 
L 54.97 61.52 
Q 54.97 63.52 56.97 63.52 
z
" style="fill:#ffffff;stroke:#000000;stroke-linejoin:miter;"/>
    </g>
    <g id="line2d_25">
     <path d="M 58.97 39.071562 
L 78.97 39.071562 
" style="fill:none;stroke:#ff0000;stroke-linecap:square;stroke-width:2;"/>
    </g>
    <g id="line2d_26">
     <g>
      <use style="fill:#ff0000;stroke:#000000;stroke-linejoin:miter;" x="68.97" xlink:href="#m2403e028ae" y="39.071562"/>
     </g>
    </g>
    <g id="text_13">
     <!-- PDRWS N:8192 pad:32 grain:128 -->
     <defs>
      <path d="M 21.296875 8.109375 
Q 33.734375 8.109375 38.671875 14.234375 
Q 43.609375 20.359375 43.609375 36.375 
Q 43.609375 52.546875 38.703125 58.671875 
Q 33.796875 64.796875 21.296875 64.796875 
L 16.609375 64.796875 
L 16.609375 8.109375 
z
M 21.484375 72.90625 
Q 38.1875 72.90625 46.09375 64.015625 
Q 54 55.125 54 36.375 
Q 54 17.71875 46.09375 8.859375 
Q 38.1875 0 21.484375 0 
L 6.6875 0 
L 6.6875 72.90625 
z
" id="DejaVuSansMono-44"/>
      <path d="M 37.109375 34.421875 
Q 40.921875 33.453125 43.609375 30.734375 
Q 46.296875 28.03125 50.296875 19.921875 
L 60.203125 0 
L 49.609375 0 
L 40.921875 18.40625 
Q 37.15625 26.265625 34.15625 28.53125 
Q 31.15625 30.8125 26.3125 30.8125 
L 16.890625 30.8125 
L 16.890625 0 
L 6.984375 0 
L 6.984375 72.90625 
L 27.296875 72.90625 
Q 39.3125 72.90625 45.703125 67.484375 
Q 52.09375 62.0625 52.09375 51.8125 
Q 52.09375 44.578125 48.15625 40.015625 
Q 44.234375 35.453125 37.109375 34.421875 
z
M 16.890625 64.796875 
L 16.890625 38.921875 
L 27.6875 38.921875 
Q 34.765625 38.921875 38.234375 42.09375 
Q 41.703125 45.265625 41.703125 51.8125 
Q 41.703125 58.109375 38.015625 61.453125 
Q 34.328125 64.796875 27.296875 64.796875 
z
" id="DejaVuSansMono-52"/>
      <path d="M 0 72.90625 
L 9.625 72.90625 
L 16.609375 13.71875 
L 24.90625 52.875 
L 35.203125 52.875 
L 43.609375 13.625 
L 50.59375 72.90625 
L 60.203125 72.90625 
L 49.3125 0 
L 39.984375 0 
L 30.078125 43.3125 
L 20.21875 0 
L 10.890625 0 
z
" id="DejaVuSansMono-57"/>
      <path id="DejaVuSansMono-20"/>
      <path d="M 6.78125 72.90625 
L 19.28125 72.90625 
L 43.890625 12.890625 
L 43.890625 72.90625 
L 53.421875 72.90625 
L 53.421875 0 
L 40.921875 0 
L 16.3125 60.015625 
L 16.3125 0 
L 6.78125 0 
z
" id="DejaVuSansMono-4e"/>
      <path d="M 23.875 51.90625 
L 36.1875 51.90625 
L 36.1875 37.109375 
L 23.875 37.109375 
z
M 23.875 14.890625 
L 36.1875 14.890625 
L 36.1875 0 
L 23.875 0 
z
" id="DejaVuSansMono-3a"/>
      <path d="M 30.078125 34.625 
Q 23.484375 34.625 19.890625 30.9375 
Q 16.3125 27.25 16.3125 20.515625 
Q 16.3125 13.765625 19.9375 10.03125 
Q 23.578125 6.296875 30.078125 6.296875 
Q 36.71875 6.296875 40.296875 9.984375 
Q 43.890625 13.671875 43.890625 20.515625 
Q 43.890625 27.203125 40.25 30.90625 
Q 36.625 34.625 30.078125 34.625 
z
M 21.484375 38.71875 
Q 15.1875 40.328125 11.640625 44.71875 
Q 8.109375 49.125 8.109375 55.328125 
Q 8.109375 64.015625 14.015625 69.109375 
Q 19.921875 74.21875 30.078125 74.21875 
Q 40.28125 74.21875 46.1875 69.109375 
Q 52.09375 64.015625 52.09375 55.328125 
Q 52.09375 49.125 48.546875 44.71875 
Q 45.015625 40.328125 38.71875 38.71875 
Q 46.046875 37.109375 49.921875 32.21875 
Q 53.8125 27.34375 53.8125 19.578125 
Q 53.8125 9.71875 47.515625 4.140625 
Q 41.21875 -1.421875 30.078125 -1.421875 
Q 18.953125 -1.421875 12.671875 4.125 
Q 6.390625 9.671875 6.390625 19.484375 
Q 6.390625 27.296875 10.265625 32.203125 
Q 14.15625 37.109375 21.484375 38.71875 
z
M 17.921875 54.390625 
Q 17.921875 48.53125 21.046875 45.453125 
Q 24.171875 42.390625 30.078125 42.390625 
Q 36.03125 42.390625 39.15625 45.453125 
Q 42.28125 48.53125 42.28125 54.390625 
Q 42.28125 60.359375 39.171875 63.484375 
Q 36.078125 66.609375 30.078125 66.609375 
Q 24.171875 66.609375 21.046875 63.453125 
Q 17.921875 60.296875 17.921875 54.390625 
z
" id="DejaVuSansMono-38"/>
      <path d="M 29.109375 32.328125 
Q 35.40625 32.328125 38.984375 36.859375 
Q 42.578125 41.40625 42.578125 49.421875 
Q 42.578125 57.421875 38.984375 61.953125 
Q 35.40625 66.5 29.109375 66.5 
Q 22.5625 66.5 19.234375 62.171875 
Q 15.921875 57.859375 15.921875 49.421875 
Q 15.921875 40.921875 19.21875 36.625 
Q 22.515625 32.328125 29.109375 32.328125 
z
M 11.53125 1.515625 
L 11.53125 10.59375 
Q 14.59375 8.796875 18.0625 7.84375 
Q 21.53125 6.890625 25.296875 6.890625 
Q 34.671875 6.890625 39.46875 13.9375 
Q 44.28125 21 44.28125 34.71875 
Q 42 29.828125 37.84375 27.21875 
Q 33.6875 24.609375 28.328125 24.609375 
Q 17.78125 24.609375 11.984375 31.09375 
Q 6.203125 37.59375 6.203125 49.515625 
Q 6.203125 61.28125 12.125 67.75 
Q 18.0625 74.21875 28.90625 74.21875 
Q 41.609375 74.21875 47.515625 65.078125 
Q 53.421875 55.953125 53.421875 36.375 
Q 53.421875 17.96875 46.3125 8.265625 
Q 39.203125 -1.421875 25.6875 -1.421875 
Q 22.125 -1.421875 18.5 -0.65625 
Q 14.890625 0.09375 11.53125 1.515625 
z
" id="DejaVuSansMono-39"/>
      <path d="M 18.3125 6.890625 
L 18.3125 -20.796875 
L 9.28125 -20.796875 
L 9.28125 54.6875 
L 18.3125 54.6875 
L 18.3125 47.703125 
Q 20.5625 51.765625 24.296875 53.875 
Q 28.03125 56 32.90625 56 
Q 42.828125 56 48.46875 48.328125 
Q 54.109375 40.671875 54.109375 27.09375 
Q 54.109375 13.765625 48.4375 6.171875 
Q 42.78125 -1.421875 32.90625 -1.421875 
Q 27.9375 -1.421875 24.1875 0.703125 
Q 20.453125 2.828125 18.3125 6.890625 
z
M 44.671875 27.296875 
Q 44.671875 37.75 41.375 43.0625 
Q 38.09375 48.390625 31.59375 48.390625 
Q 25.046875 48.390625 21.671875 43.046875 
Q 18.3125 37.703125 18.3125 27.296875 
Q 18.3125 16.9375 21.671875 11.5625 
Q 25.046875 6.203125 31.59375 6.203125 
Q 38.09375 6.203125 41.375 11.515625 
Q 44.671875 16.84375 44.671875 27.296875 
z
" id="DejaVuSansMono-70"/>
      <path d="M 34.28125 27.484375 
L 31.296875 27.484375 
Q 23.4375 27.484375 19.453125 24.71875 
Q 15.484375 21.96875 15.484375 16.5 
Q 15.484375 11.578125 18.453125 8.84375 
Q 21.4375 6.109375 26.703125 6.109375 
Q 34.125 6.109375 38.375 11.25 
Q 42.625 16.40625 42.671875 25.484375 
L 42.671875 27.484375 
z
M 51.703125 31.203125 
L 51.703125 0 
L 42.671875 0 
L 42.671875 8.109375 
Q 39.796875 3.21875 35.421875 0.890625 
Q 31.0625 -1.421875 24.8125 -1.421875 
Q 16.453125 -1.421875 11.46875 3.296875 
Q 6.5 8.015625 6.5 15.921875 
Q 6.5 25.046875 12.625 29.78125 
Q 18.75 34.515625 30.609375 34.515625 
L 42.671875 34.515625 
L 42.671875 35.9375 
Q 42.625 42.484375 39.34375 45.4375 
Q 36.078125 48.390625 28.90625 48.390625 
Q 24.3125 48.390625 19.625 47.0625 
Q 14.9375 45.75 10.5 43.21875 
L 10.5 52.203125 
Q 15.484375 54.109375 20.046875 55.046875 
Q 24.609375 56 28.90625 56 
Q 35.6875 56 40.5 54 
Q 45.3125 52 48.296875 48 
Q 50.140625 45.5625 50.921875 41.96875 
Q 51.703125 38.375 51.703125 31.203125 
z
" id="DejaVuSansMono-61"/>
      <path d="M 41.890625 47.703125 
L 41.890625 75.984375 
L 50.875 75.984375 
L 50.875 0 
L 41.890625 0 
L 41.890625 6.890625 
Q 39.65625 2.828125 35.90625 0.703125 
Q 32.171875 -1.421875 27.296875 -1.421875 
Q 17.390625 -1.421875 11.6875 6.265625 
Q 6 13.96875 6 27.484375 
Q 6 40.828125 11.71875 48.40625 
Q 17.4375 56 27.296875 56 
Q 32.234375 56 35.984375 53.875 
Q 39.75 51.765625 41.890625 47.703125 
z
M 15.484375 27.296875 
Q 15.484375 16.84375 18.796875 11.515625 
Q 22.125 6.203125 28.609375 6.203125 
Q 35.109375 6.203125 38.5 11.5625 
Q 41.890625 16.9375 41.890625 27.296875 
Q 41.890625 37.703125 38.5 43.046875 
Q 35.109375 48.390625 28.609375 48.390625 
Q 22.125 48.390625 18.796875 43.0625 
Q 15.484375 37.75 15.484375 27.296875 
z
" id="DejaVuSansMono-64"/>
      <path d="M 41.890625 27.78125 
Q 41.890625 37.890625 38.59375 43.140625 
Q 35.296875 48.390625 29 48.390625 
Q 22.40625 48.390625 18.9375 43.140625 
Q 15.484375 37.890625 15.484375 27.78125 
Q 15.484375 17.671875 18.96875 12.375 
Q 22.46875 7.078125 29.109375 7.078125 
Q 35.296875 7.078125 38.59375 12.390625 
Q 41.890625 17.71875 41.890625 27.78125 
z
M 50.875 3.515625 
Q 50.875 -8.796875 45.0625 -15.140625 
Q 39.265625 -21.484375 27.984375 -21.484375 
Q 24.265625 -21.484375 20.203125 -20.796875 
Q 16.15625 -20.125 12.109375 -18.796875 
L 12.109375 -9.90625 
Q 16.890625 -12.15625 20.796875 -13.234375 
Q 24.703125 -14.3125 27.984375 -14.3125 
Q 35.25 -14.3125 38.5625 -10.34375 
Q 41.890625 -6.390625 41.890625 2.203125 
L 41.890625 2.59375 
L 41.890625 8.6875 
Q 39.75 4.109375 36.03125 1.859375 
Q 32.328125 -0.390625 27 -0.390625 
Q 17.4375 -0.390625 11.71875 7.265625 
Q 6 14.9375 6 27.78125 
Q 6 40.671875 11.71875 48.328125 
Q 17.4375 56 27 56 
Q 32.28125 56 35.9375 53.90625 
Q 39.59375 51.8125 41.890625 47.40625 
L 41.890625 54.5 
L 50.875 54.5 
z
" id="DejaVuSansMono-67"/>
      <path d="M 56.390625 43.40625 
Q 53.515625 45.65625 50.53125 46.671875 
Q 47.5625 47.703125 44 47.703125 
Q 35.59375 47.703125 31.140625 42.421875 
Q 26.703125 37.15625 26.703125 27.203125 
L 26.703125 0 
L 17.671875 0 
L 17.671875 54.6875 
L 26.703125 54.6875 
L 26.703125 44 
Q 28.953125 49.8125 33.609375 52.90625 
Q 38.28125 56 44.671875 56 
Q 48 56 50.875 55.171875 
Q 53.765625 54.34375 56.390625 52.59375 
z
" id="DejaVuSansMono-72"/>
      <path d="M 12.5 54.6875 
L 35.5 54.6875 
L 35.5 6.984375 
L 53.328125 6.984375 
L 53.328125 0 
L 8.6875 0 
L 8.6875 6.984375 
L 26.515625 6.984375 
L 26.515625 47.703125 
L 12.5 47.703125 
z
M 26.515625 75.984375 
L 35.5 75.984375 
L 35.5 64.59375 
L 26.515625 64.59375 
z
" id="DejaVuSansMono-69"/>
      <path d="M 51.3125 33.890625 
L 51.3125 0 
L 42.28125 0 
L 42.28125 33.890625 
Q 42.28125 41.265625 39.6875 44.71875 
Q 37.109375 48.1875 31.59375 48.1875 
Q 25.296875 48.1875 21.890625 43.71875 
Q 18.5 39.265625 18.5 30.90625 
L 18.5 0 
L 9.515625 0 
L 9.515625 54.6875 
L 18.5 54.6875 
L 18.5 46.484375 
Q 20.90625 51.171875 25 53.578125 
Q 29.109375 56 34.71875 56 
Q 43.0625 56 47.1875 50.5 
Q 51.3125 45.015625 51.3125 33.890625 
z
" id="DejaVuSansMono-6e"/>
     </defs>
     <g transform="translate(86.97 42.571562)scale(0.1 -0.1)">
      <use xlink:href="#DejaVuSansMono-50"/>
      <use x="60.205078" xlink:href="#DejaVuSansMono-44"/>
      <use x="120.410156" xlink:href="#DejaVuSansMono-52"/>
      <use x="180.615234" xlink:href="#DejaVuSansMono-57"/>
      <use x="240.820312" xlink:href="#DejaVuSansMono-53"/>
      <use x="301.025391" xlink:href="#DejaVuSansMono-20"/>
      <use x="361.230469" xlink:href="#DejaVuSansMono-4e"/>
      <use x="421.435547" xlink:href="#DejaVuSansMono-3a"/>
      <use x="481.640625" xlink:href="#DejaVuSansMono-38"/>
      <use x="541.845703" xlink:href="#DejaVuSansMono-31"/>
      <use x="602.050781" xlink:href="#DejaVuSansMono-39"/>
      <use x="662.255859" xlink:href="#DejaVuSansMono-32"/>
      <use x="722.460938" xlink:href="#DejaVuSansMono-20"/>
      <use x="782.666016" xlink:href="#DejaVuSansMono-70"/>
      <use x="842.871094" xlink:href="#DejaVuSansMono-61"/>
      <use x="903.076172" xlink:href="#DejaVuSansMono-64"/>
      <use x="963.28125" xlink:href="#DejaVuSansMono-3a"/>
      <use x="1023.486328" xlink:href="#DejaVuSansMono-33"/>
      <use x="1083.691406" xlink:href="#DejaVuSansMono-32"/>
      <use x="1143.896484" xlink:href="#DejaVuSansMono-20"/>
      <use x="1204.101562" xlink:href="#DejaVuSansMono-67"/>
      <use x="1264.306641" xlink:href="#DejaVuSansMono-72"/>
      <use x="1324.511719" xlink:href="#DejaVuSansMono-61"/>
      <use x="1384.716797" xlink:href="#DejaVuSansMono-69"/>
      <use x="1444.921875" xlink:href="#DejaVuSansMono-6e"/>
      <use x="1505.126953" xlink:href="#DejaVuSansMono-3a"/>
      <use x="1565.332031" xlink:href="#DejaVuSansMono-31"/>
      <use x="1625.537109" xlink:href="#DejaVuSansMono-32"/>
      <use x="1685.742188" xlink:href="#DejaVuSansMono-38"/>
     </g>
    </g>
    <g id="line2d_27">
     <path d="M 58.97 53.871562 
L 78.97 53.871562 
" style="fill:none;stroke:#0000ff;stroke-linecap:square;stroke-width:2;"/>
    </g>
    <g id="line2d_28">
     <g>
      <use style="fill:#0000ff;stroke:#000000;stroke-linejoin:miter;" x="68.97" xlink:href="#mde068f3c8c" y="53.871562"/>
     </g>
    </g>
    <g id="text_14">
     <!-- QUEUE N:8192 pad:32 grain:128 -->
     <defs>
      <path d="M 31.984375 -1.3125 
Q 31.640625 -1.3125 31 -1.359375 
Q 30.375 -1.421875 29.984375 -1.421875 
Q 17.78125 -1.421875 11.75 7.953125 
Q 5.71875 17.328125 5.71875 36.375 
Q 5.71875 55.46875 11.75 64.84375 
Q 17.78125 74.21875 30.078125 74.21875 
Q 42.4375 74.21875 48.46875 64.84375 
Q 54.5 55.46875 54.5 36.375 
Q 54.5 22.015625 51.140625 13.25 
Q 47.796875 4.5 41.015625 0.984375 
L 50.78125 -8.296875 
L 43.40625 -13.1875 
z
M 44.1875 36.375 
Q 44.1875 52.4375 40.890625 59.328125 
Q 37.59375 66.21875 30.078125 66.21875 
Q 22.609375 66.21875 19.3125 59.328125 
Q 16.015625 52.4375 16.015625 36.375 
Q 16.015625 20.359375 19.3125 13.46875 
Q 22.609375 6.59375 30.078125 6.59375 
Q 37.59375 6.59375 40.890625 13.453125 
Q 44.1875 20.3125 44.1875 36.375 
z
" id="DejaVuSansMono-51"/>
      <path d="M 7.171875 27.984375 
L 7.171875 72.90625 
L 17.09375 72.90625 
L 17.09375 23.484375 
Q 17.09375 18.171875 17.375 15.890625 
Q 17.671875 13.625 18.40625 12.40625 
Q 19.96875 9.515625 22.921875 8.046875 
Q 25.875 6.59375 30.078125 6.59375 
Q 34.328125 6.59375 37.25 8.046875 
Q 40.1875 9.515625 41.796875 12.40625 
Q 42.53125 13.625 42.8125 15.859375 
Q 43.109375 18.109375 43.109375 23.390625 
L 43.109375 72.90625 
L 52.984375 72.90625 
L 52.984375 27.984375 
Q 52.984375 16.796875 51.59375 12.078125 
Q 50.203125 7.375 46.78125 4.296875 
Q 43.5625 1.421875 39.40625 0 
Q 35.25 -1.421875 30.078125 -1.421875 
Q 24.953125 -1.421875 20.796875 0 
Q 16.65625 1.421875 13.375 4.296875 
Q 10.015625 7.328125 8.59375 12.125 
Q 7.171875 16.9375 7.171875 27.984375 
z
" id="DejaVuSansMono-55"/>
      <path d="M 9.625 72.90625 
L 52.875 72.90625 
L 52.875 64.59375 
L 19.484375 64.59375 
L 19.484375 43.015625 
L 51.421875 43.015625 
L 51.421875 34.71875 
L 19.484375 34.71875 
L 19.484375 8.296875 
L 53.8125 8.296875 
L 53.8125 0 
L 9.625 0 
z
" id="DejaVuSansMono-45"/>
     </defs>
     <g transform="translate(86.97 57.371562)scale(0.1 -0.1)">
      <use xlink:href="#DejaVuSansMono-51"/>
      <use x="60.205078" xlink:href="#DejaVuSansMono-55"/>
      <use x="120.410156" xlink:href="#DejaVuSansMono-45"/>
      <use x="180.615234" xlink:href="#DejaVuSansMono-55"/>
      <use x="240.820312" xlink:href="#DejaVuSansMono-45"/>
      <use x="301.025391" xlink:href="#DejaVuSansMono-20"/>
      <use x="361.230469" xlink:href="#DejaVuSansMono-4e"/>
      <use x="421.435547" xlink:href="#DejaVuSansMono-3a"/>
      <use x="481.640625" xlink:href="#DejaVuSansMono-38"/>
      <use x="541.845703" xlink:href="#DejaVuSansMono-31"/>
      <use x="602.050781" xlink:href="#DejaVuSansMono-39"/>
      <use x="662.255859" xlink:href="#DejaVuSansMono-32"/>
      <use x="722.460938" xlink:href="#DejaVuSansMono-20"/>
      <use x="782.666016" xlink:href="#DejaVuSansMono-70"/>
      <use x="842.871094" xlink:href="#DejaVuSansMono-61"/>
      <use x="903.076172" xlink:href="#DejaVuSansMono-64"/>
      <use x="963.28125" xlink:href="#DejaVuSansMono-3a"/>
      <use x="1023.486328" xlink:href="#DejaVuSansMono-33"/>
      <use x="1083.691406" xlink:href="#DejaVuSansMono-32"/>
      <use x="1143.896484" xlink:href="#DejaVuSansMono-20"/>
      <use x="1204.101562" xlink:href="#DejaVuSansMono-67"/>
      <use x="1264.306641" xlink:href="#DejaVuSansMono-72"/>
      <use x="1324.511719" xlink:href="#DejaVuSansMono-61"/>
      <use x="1384.716797" xlink:href="#DejaVuSansMono-69"/>
      <use x="1444.921875" xlink:href="#DejaVuSansMono-6e"/>
      <use x="1505.126953" xlink:href="#DejaVuSansMono-3a"/>
      <use x="1565.332031" xlink:href="#DejaVuSansMono-31"/>
      <use x="1625.537109" xlink:href="#DejaVuSansMono-32"/>
      <use x="1685.742188" xlink:href="#DejaVuSansMono-38"/>
     </g>
    </g>
   </g>
  </g>
  <g id="axes_2">
   <g id="patch_9">
    <path d="M 49.97 390.04 
L 847.17 390.04 
L 847.17 223.426574 
L 49.97 223.426574 
z
" style="fill:none;"/>
   </g>
   <g id="line2d_29">
    <path clip-path="url(#p59886ffa5f)" d="M 72.114444 236.419743 
L 94.258889 312.837911 
L 138.547778 349.986674 
L 315.703333 363.02303 
L 581.436667 349.849448 
L 847.17 346.659627 
" style="fill:none;stroke:#0000ff;stroke-linecap:square;stroke-width:2;"/>
    <g clip-path="url(#p59886ffa5f)">
     <use style="fill:#0000ff;stroke:#000000;stroke-linejoin:miter;" x="72.114444" xlink:href="#mde068f3c8c" y="236.419743"/>
     <use style="fill:#0000ff;stroke:#000000;stroke-linejoin:miter;" x="94.258889" xlink:href="#mde068f3c8c" y="312.837911"/>
     <use style="fill:#0000ff;stroke:#000000;stroke-linejoin:miter;" x="138.547778" xlink:href="#mde068f3c8c" y="349.986674"/>
     <use style="fill:#0000ff;stroke:#000000;stroke-linejoin:miter;" x="315.703333" xlink:href="#mde068f3c8c" y="363.02303"/>
     <use style="fill:#0000ff;stroke:#000000;stroke-linejoin:miter;" x="581.436667" xlink:href="#mde068f3c8c" y="349.849448"/>
     <use style="fill:#0000ff;stroke:#000000;stroke-linejoin:miter;" x="847.17" xlink:href="#mde068f3c8c" y="346.659627"/>
    </g>
   </g>
   <g id="matplotlib.axis_3">
    <g id="xtick_7">
     <g id="line2d_30">
      <path clip-path="url(#p59886ffa5f)" d="M 72.114444 390.04 
L 72.114444 223.426574 
" style="fill:none;stroke:#b0b0b0;stroke-dasharray:0.8,1.32;stroke-dashoffset:0;stroke-width:0.8;"/>
     </g>
     <g id="line2d_31">
      <g>
       <use style="stroke:#000000;stroke-width:0.8;" x="72.114444" xlink:href="#m514be0b212" y="390.04"/>
      </g>
     </g>
     <g id="text_15">
      <!-- 1 -->
      <g transform="translate(69.104288 404.691563)scale(0.1 -0.1)">
       <use xlink:href="#DejaVuSansMono-31"/>
      </g>
     </g>
    </g>
    <g id="xtick_8">
     <g id="line2d_32">
      <path clip-path="url(#p59886ffa5f)" d="M 94.258889 390.04 
L 94.258889 223.426574 
" style="fill:none;stroke:#b0b0b0;stroke-dasharray:0.8,1.32;stroke-dashoffset:0;stroke-width:0.8;"/>
     </g>
     <g id="line2d_33">
      <g>
       <use style="stroke:#000000;stroke-width:0.8;" x="94.258889" xlink:href="#m514be0b212" y="390.04"/>
      </g>
     </g>
     <g id="text_16">
      <!-- 2 -->
      <g transform="translate(91.248733 404.691563)scale(0.1 -0.1)">
       <use xlink:href="#DejaVuSansMono-32"/>
      </g>
     </g>
    </g>
    <g id="xtick_9">
     <g id="line2d_34">
      <path clip-path="url(#p59886ffa5f)" d="M 138.547778 390.04 
L 138.547778 223.426574 
" style="fill:none;stroke:#b0b0b0;stroke-dasharray:0.8,1.32;stroke-dashoffset:0;stroke-width:0.8;"/>
     </g>
     <g id="line2d_35">
      <g>
       <use style="stroke:#000000;stroke-width:0.8;" x="138.547778" xlink:href="#m514be0b212" y="390.04"/>
      </g>
     </g>
     <g id="text_17">
      <!-- 4 -->
      <g transform="translate(135.537622 404.691563)scale(0.1 -0.1)">
       <use xlink:href="#DejaVuSansMono-34"/>
      </g>
     </g>
    </g>
    <g id="xtick_10">
     <g id="line2d_36">
      <path clip-path="url(#p59886ffa5f)" d="M 315.703333 390.04 
L 315.703333 223.426574 
" style="fill:none;stroke:#b0b0b0;stroke-dasharray:0.8,1.32;stroke-dashoffset:0;stroke-width:0.8;"/>
     </g>
     <g id="line2d_37">
      <g>
       <use style="stroke:#000000;stroke-width:0.8;" x="315.703333" xlink:href="#m514be0b212" y="390.04"/>
      </g>
     </g>
     <g id="text_18">
      <!-- 12 -->
      <g transform="translate(309.683021 404.691563)scale(0.1 -0.1)">
       <use xlink:href="#DejaVuSansMono-31"/>
       <use x="60.205078" xlink:href="#DejaVuSansMono-32"/>
      </g>
     </g>
    </g>
    <g id="xtick_11">
     <g id="line2d_38">
      <path clip-path="url(#p59886ffa5f)" d="M 581.436667 390.04 
L 581.436667 223.426574 
" style="fill:none;stroke:#b0b0b0;stroke-dasharray:0.8,1.32;stroke-dashoffset:0;stroke-width:0.8;"/>
     </g>
     <g id="line2d_39">
      <g>
       <use style="stroke:#000000;stroke-width:0.8;" x="581.436667" xlink:href="#m514be0b212" y="390.04"/>
      </g>
     </g>
     <g id="text_19">
      <!-- 24 -->
      <g transform="translate(575.416354 404.691563)scale(0.1 -0.1)">
       <use xlink:href="#DejaVuSansMono-32"/>
       <use x="60.205078" xlink:href="#DejaVuSansMono-34"/>
      </g>
     </g>
    </g>
    <g id="xtick_12">
     <g id="line2d_40">
      <path clip-path="url(#p59886ffa5f)" d="M 847.17 390.04 
L 847.17 223.426574 
" style="fill:none;stroke:#b0b0b0;stroke-dasharray:0.8,1.32;stroke-dashoffset:0;stroke-width:0.8;"/>
     </g>
     <g id="line2d_41">
      <g>
       <use style="stroke:#000000;stroke-width:0.8;" x="847.17" xlink:href="#m514be0b212" y="390.04"/>
      </g>
     </g>
     <g id="text_20">
      <!-- 36 -->
      <g transform="translate(841.149688 404.691563)scale(0.1 -0.1)">
       <use xlink:href="#DejaVuSansMono-33"/>
       <use x="60.205078" xlink:href="#DejaVuSansMono-36"/>
      </g>
     </g>
    </g>
    <g id="text_21">
     <!-- #processor cores -->
     <defs>
      <path d="M 33.40625 71.78125 
L 28.328125 51.515625 
L 40.28125 51.515625 
L 45.40625 71.78125 
L 53.21875 71.78125 
L 48.09375 51.515625 
L 60.015625 51.515625 
L 60.015625 44 
L 46.296875 44 
L 42.1875 27.6875 
L 54.390625 27.6875 
L 54.390625 20.21875 
L 40.28125 20.21875 
L 35.203125 0 
L 27.390625 0 
L 32.515625 20.21875 
L 20.515625 20.21875 
L 15.375 0 
L 7.625 0 
L 12.703125 20.21875 
L 0.09375 20.21875 
L 0.09375 27.6875 
L 14.59375 27.6875 
L 18.703125 44 
L 5.71875 44 
L 5.71875 51.515625 
L 20.515625 51.515625 
L 25.59375 71.78125 
z
M 38.484375 44 
L 26.515625 44 
L 22.40625 27.6875 
L 34.421875 27.6875 
z
" id="DejaVuSansMono-23"/>
      <path d="M 30.078125 48.390625 
Q 23.25 48.390625 19.734375 43.0625 
Q 16.21875 37.75 16.21875 27.296875 
Q 16.21875 16.890625 19.734375 11.546875 
Q 23.25 6.203125 30.078125 6.203125 
Q 36.96875 6.203125 40.484375 11.546875 
Q 44 16.890625 44 27.296875 
Q 44 37.75 40.484375 43.0625 
Q 36.96875 48.390625 30.078125 48.390625 
z
M 30.078125 56 
Q 41.453125 56 47.484375 48.625 
Q 53.515625 41.265625 53.515625 27.296875 
Q 53.515625 13.28125 47.5 5.921875 
Q 41.5 -1.421875 30.078125 -1.421875 
Q 18.703125 -1.421875 12.6875 5.921875 
Q 6.6875 13.28125 6.6875 27.296875 
Q 6.6875 41.265625 12.6875 48.625 
Q 18.703125 56 30.078125 56 
z
" id="DejaVuSansMono-6f"/>
      <path d="M 51.8125 2.78125 
Q 48.1875 0.6875 44.359375 -0.359375 
Q 40.53125 -1.421875 36.53125 -1.421875 
Q 23.828125 -1.421875 16.671875 6.1875 
Q 9.515625 13.8125 9.515625 27.296875 
Q 9.515625 40.765625 16.671875 48.375 
Q 23.828125 56 36.53125 56 
Q 40.484375 56 44.234375 54.96875 
Q 48 53.953125 51.8125 51.8125 
L 51.8125 42.390625 
Q 48.25 45.5625 44.65625 46.96875 
Q 41.0625 48.390625 36.53125 48.390625 
Q 28.078125 48.390625 23.53125 42.921875 
Q 19 37.453125 19 27.296875 
Q 19 17.1875 23.5625 11.6875 
Q 28.125 6.203125 36.53125 6.203125 
Q 41.21875 6.203125 44.921875 7.640625 
Q 48.640625 9.078125 51.8125 12.109375 
z
" id="DejaVuSansMono-63"/>
      <path d="M 54.296875 29.59375 
L 54.296875 25.203125 
L 15.375 25.203125 
L 15.375 24.90625 
Q 15.375 15.96875 20.03125 11.078125 
Q 24.703125 6.203125 33.203125 6.203125 
Q 37.5 6.203125 42.1875 7.5625 
Q 46.875 8.9375 52.203125 11.71875 
L 52.203125 2.78125 
Q 47.078125 0.6875 42.3125 -0.359375 
Q 37.546875 -1.421875 33.109375 -1.421875 
Q 20.359375 -1.421875 13.171875 6.21875 
Q 6 13.875 6 27.296875 
Q 6 40.375 13.03125 48.1875 
Q 20.0625 56 31.78125 56 
Q 42.234375 56 48.265625 48.921875 
Q 54.296875 41.84375 54.296875 29.59375 
z
M 45.3125 32.234375 
Q 45.125 40.140625 41.578125 44.265625 
Q 38.03125 48.390625 31.390625 48.390625 
Q 24.90625 48.390625 20.703125 44.09375 
Q 16.5 39.796875 15.71875 32.171875 
z
" id="DejaVuSansMono-65"/>
      <path d="M 47.515625 52.78125 
L 47.515625 44 
Q 43.65625 46.234375 39.75 47.359375 
Q 35.84375 48.484375 31.78125 48.484375 
Q 25.6875 48.484375 22.671875 46.5 
Q 19.671875 44.53125 19.671875 40.484375 
Q 19.671875 36.8125 21.921875 35 
Q 24.171875 33.203125 33.109375 31.5 
L 36.71875 30.8125 
Q 43.40625 29.546875 46.84375 25.734375 
Q 50.296875 21.921875 50.296875 15.828125 
Q 50.296875 7.71875 44.53125 3.140625 
Q 38.765625 -1.421875 28.515625 -1.421875 
Q 24.46875 -1.421875 20.015625 -0.5625 
Q 15.578125 0.296875 10.40625 2 
L 10.40625 11.28125 
Q 15.4375 8.6875 20.015625 7.390625 
Q 24.609375 6.109375 28.71875 6.109375 
Q 34.671875 6.109375 37.9375 8.515625 
Q 41.21875 10.9375 41.21875 15.28125 
Q 41.21875 21.53125 29.25 23.921875 
L 28.859375 24.03125 
L 25.484375 24.703125 
Q 17.71875 26.21875 14.15625 29.8125 
Q 10.59375 33.40625 10.59375 39.59375 
Q 10.59375 47.46875 15.90625 51.734375 
Q 21.234375 56 31.109375 56 
Q 35.5 56 39.546875 55.1875 
Q 43.609375 54.390625 47.515625 52.78125 
z
" id="DejaVuSansMono-73"/>
     </defs>
     <g transform="translate(400.4075 418.422813)scale(0.1 -0.1)">
      <use xlink:href="#DejaVuSansMono-23"/>
      <use x="60.205078" xlink:href="#DejaVuSansMono-70"/>
      <use x="120.410156" xlink:href="#DejaVuSansMono-72"/>
      <use x="180.615234" xlink:href="#DejaVuSansMono-6f"/>
      <use x="240.820312" xlink:href="#DejaVuSansMono-63"/>
      <use x="301.025391" xlink:href="#DejaVuSansMono-65"/>
      <use x="361.230469" xlink:href="#DejaVuSansMono-73"/>
      <use x="421.435547" xlink:href="#DejaVuSansMono-73"/>
      <use x="481.640625" xlink:href="#DejaVuSansMono-6f"/>
      <use x="541.845703" xlink:href="#DejaVuSansMono-72"/>
      <use x="602.050781" xlink:href="#DejaVuSansMono-20"/>
      <use x="662.255859" xlink:href="#DejaVuSansMono-63"/>
      <use x="722.460938" xlink:href="#DejaVuSansMono-6f"/>
      <use x="782.666016" xlink:href="#DejaVuSansMono-72"/>
      <use x="842.871094" xlink:href="#DejaVuSansMono-65"/>
      <use x="903.076172" xlink:href="#DejaVuSansMono-73"/>
     </g>
    </g>
   </g>
   <g id="matplotlib.axis_4">
    <g id="ytick_6">
     <g id="line2d_42">
      <path clip-path="url(#p59886ffa5f)" d="M 49.97 390.04 
L 847.17 390.04 
" style="fill:none;stroke:#b0b0b0;stroke-dasharray:0.8,1.32;stroke-dashoffset:0;stroke-width:0.8;"/>
     </g>
     <g id="line2d_43">
      <g>
       <use style="stroke:#000000;stroke-width:0.8;" x="49.97" xlink:href="#m3275b6ac5e" y="390.04"/>
      </g>
     </g>
     <g id="text_22">
      <!-- 0 -->
      <g transform="translate(36.949688 393.865781)scale(0.1 -0.1)">
       <use xlink:href="#DejaVuSansMono-30"/>
      </g>
     </g>
    </g>
    <g id="ytick_7">
     <g id="line2d_44">
      <path clip-path="url(#p59886ffa5f)" d="M 49.97 348.386644 
L 847.17 348.386644 
" style="fill:none;stroke:#b0b0b0;stroke-dasharray:0.8,1.32;stroke-dashoffset:0;stroke-width:0.8;"/>
     </g>
     <g id="line2d_45">
      <g>
       <use style="stroke:#000000;stroke-width:0.8;" x="49.97" xlink:href="#m3275b6ac5e" y="348.386644"/>
      </g>
     </g>
     <g id="text_23">
      <!-- 50 -->
      <g transform="translate(30.929375 352.212425)scale(0.1 -0.1)">
       <use xlink:href="#DejaVuSansMono-35"/>
       <use x="60.205078" xlink:href="#DejaVuSansMono-30"/>
      </g>
     </g>
    </g>
    <g id="ytick_8">
     <g id="line2d_46">
      <path clip-path="url(#p59886ffa5f)" d="M 49.97 306.733287 
L 847.17 306.733287 
" style="fill:none;stroke:#b0b0b0;stroke-dasharray:0.8,1.32;stroke-dashoffset:0;stroke-width:0.8;"/>
     </g>
     <g id="line2d_47">
      <g>
       <use style="stroke:#000000;stroke-width:0.8;" x="49.97" xlink:href="#m3275b6ac5e" y="306.733287"/>
      </g>
     </g>
     <g id="text_24">
      <!-- 100 -->
      <g transform="translate(24.909063 310.559068)scale(0.1 -0.1)">
       <use xlink:href="#DejaVuSansMono-31"/>
       <use x="60.205078" xlink:href="#DejaVuSansMono-30"/>
       <use x="120.410156" xlink:href="#DejaVuSansMono-30"/>
      </g>
     </g>
    </g>
    <g id="ytick_9">
     <g id="line2d_48">
      <path clip-path="url(#p59886ffa5f)" d="M 49.97 265.079931 
L 847.17 265.079931 
" style="fill:none;stroke:#b0b0b0;stroke-dasharray:0.8,1.32;stroke-dashoffset:0;stroke-width:0.8;"/>
     </g>
     <g id="line2d_49">
      <g>
       <use style="stroke:#000000;stroke-width:0.8;" x="49.97" xlink:href="#m3275b6ac5e" y="265.079931"/>
      </g>
     </g>
     <g id="text_25">
      <!-- 150 -->
      <g transform="translate(24.909063 268.905712)scale(0.1 -0.1)">
       <use xlink:href="#DejaVuSansMono-31"/>
       <use x="60.205078" xlink:href="#DejaVuSansMono-35"/>
       <use x="120.410156" xlink:href="#DejaVuSansMono-30"/>
      </g>
     </g>
    </g>
    <g id="ytick_10">
     <g id="line2d_50">
      <path clip-path="url(#p59886ffa5f)" d="M 49.97 223.426574 
L 847.17 223.426574 
" style="fill:none;stroke:#b0b0b0;stroke-dasharray:0.8,1.32;stroke-dashoffset:0;stroke-width:0.8;"/>
     </g>
     <g id="line2d_51">
      <g>
       <use style="stroke:#000000;stroke-width:0.8;" x="49.97" xlink:href="#m3275b6ac5e" y="223.426574"/>
      </g>
     </g>
     <g id="text_26">
      <!-- 200 -->
      <g transform="translate(24.909063 227.252356)scale(0.1 -0.1)">
       <use xlink:href="#DejaVuSansMono-32"/>
       <use x="60.205078" xlink:href="#DejaVuSansMono-30"/>
       <use x="120.410156" xlink:href="#DejaVuSansMono-30"/>
      </g>
     </g>
    </g>
    <g id="text_27">
     <!-- processing time [s] -->
     <defs>
      <path d="M 29.984375 70.21875 
L 29.984375 54.6875 
L 50.390625 54.6875 
L 50.390625 47.703125 
L 29.984375 47.703125 
L 29.984375 18.015625 
Q 29.984375 11.96875 32.28125 9.5625 
Q 34.578125 7.171875 40.28125 7.171875 
L 50.390625 7.171875 
L 50.390625 0 
L 39.40625 0 
Q 29.296875 0 25.140625 4.046875 
Q 21 8.109375 21 18.015625 
L 21 47.703125 
L 6.390625 47.703125 
L 6.390625 54.6875 
L 21 54.6875 
L 21 70.21875 
z
" id="DejaVuSansMono-74"/>
      <path d="M 33.015625 49.125 
Q 34.671875 52.640625 37.234375 54.3125 
Q 39.796875 56 43.40625 56 
Q 50 56 52.703125 50.890625 
Q 55.421875 45.796875 55.421875 31.6875 
L 55.421875 0 
L 47.21875 0 
L 47.21875 31.296875 
Q 47.21875 42.875 45.921875 45.671875 
Q 44.625 48.484375 41.21875 48.484375 
Q 37.3125 48.484375 35.859375 45.484375 
Q 34.421875 42.484375 34.421875 31.296875 
L 34.421875 0 
L 26.21875 0 
L 26.21875 31.296875 
Q 26.21875 43.015625 24.828125 45.75 
Q 23.4375 48.484375 19.828125 48.484375 
Q 16.265625 48.484375 14.875 45.484375 
Q 13.484375 42.484375 13.484375 31.296875 
L 13.484375 0 
L 5.328125 0 
L 5.328125 54.6875 
L 13.484375 54.6875 
L 13.484375 50 
Q 15.09375 52.9375 17.5 54.46875 
Q 19.921875 56 23 56 
Q 26.703125 56 29.171875 54.296875 
Q 31.640625 52.59375 33.015625 49.125 
z
" id="DejaVuSansMono-6d"/>
      <path d="M 22.609375 75.984375 
L 43.3125 75.984375 
L 43.3125 69 
L 31.59375 69 
L 31.59375 -6.203125 
L 43.3125 -6.203125 
L 43.3125 -13.1875 
L 22.609375 -13.1875 
z
" id="DejaVuSansMono-5b"/>
      <path d="M 37.59375 75.984375 
L 37.59375 -13.1875 
L 16.890625 -13.1875 
L 16.890625 -6.203125 
L 28.609375 -6.203125 
L 28.609375 69 
L 16.890625 69 
L 16.890625 75.984375 
z
" id="DejaVuSansMono-5d"/>
     </defs>
     <g transform="translate(18.760625 363.926256)rotate(-90)scale(0.1 -0.1)">
      <use xlink:href="#DejaVuSansMono-70"/>
      <use x="60.205078" xlink:href="#DejaVuSansMono-72"/>
      <use x="120.410156" xlink:href="#DejaVuSansMono-6f"/>
      <use x="180.615234" xlink:href="#DejaVuSansMono-63"/>
      <use x="240.820312" xlink:href="#DejaVuSansMono-65"/>
      <use x="301.025391" xlink:href="#DejaVuSansMono-73"/>
      <use x="361.230469" xlink:href="#DejaVuSansMono-73"/>
      <use x="421.435547" xlink:href="#DejaVuSansMono-69"/>
      <use x="481.640625" xlink:href="#DejaVuSansMono-6e"/>
      <use x="541.845703" xlink:href="#DejaVuSansMono-67"/>
      <use x="602.050781" xlink:href="#DejaVuSansMono-20"/>
      <use x="662.255859" xlink:href="#DejaVuSansMono-74"/>
      <use x="722.460938" xlink:href="#DejaVuSansMono-69"/>
      <use x="782.666016" xlink:href="#DejaVuSansMono-6d"/>
      <use x="842.871094" xlink:href="#DejaVuSansMono-65"/>
      <use x="903.076172" xlink:href="#DejaVuSansMono-20"/>
      <use x="963.28125" xlink:href="#DejaVuSansMono-5b"/>
      <use x="1023.486328" xlink:href="#DejaVuSansMono-73"/>
      <use x="1083.691406" xlink:href="#DejaVuSansMono-5d"/>
     </g>
    </g>
   </g>
   <g id="line2d_52">
    <path clip-path="url(#p59886ffa5f)" d="M 72.114444 273.835655 
L 94.258889 331.685599 
L 138.547778 360.332093 
L 315.703333 377.908677 
L 581.436667 383.211556 
L 847.17 384.806199 
" style="fill:none;stroke:#ff0000;stroke-linecap:square;stroke-width:2;"/>
    <g clip-path="url(#p59886ffa5f)">
     <use style="fill:#ff0000;stroke:#000000;stroke-linejoin:miter;" x="72.114444" xlink:href="#m2403e028ae" y="273.835655"/>
     <use style="fill:#ff0000;stroke:#000000;stroke-linejoin:miter;" x="94.258889" xlink:href="#m2403e028ae" y="331.685599"/>
     <use style="fill:#ff0000;stroke:#000000;stroke-linejoin:miter;" x="138.547778" xlink:href="#m2403e028ae" y="360.332093"/>
     <use style="fill:#ff0000;stroke:#000000;stroke-linejoin:miter;" x="315.703333" xlink:href="#m2403e028ae" y="377.908677"/>
     <use style="fill:#ff0000;stroke:#000000;stroke-linejoin:miter;" x="581.436667" xlink:href="#m2403e028ae" y="383.211556"/>
     <use style="fill:#ff0000;stroke:#000000;stroke-linejoin:miter;" x="847.17" xlink:href="#m2403e028ae" y="384.806199"/>
    </g>
   </g>
   <g id="patch_10">
    <path d="M 49.97 390.04 
L 49.97 223.426574 
" style="fill:none;stroke:#000000;stroke-linecap:square;stroke-linejoin:miter;stroke-width:0.8;"/>
   </g>
   <g id="patch_11">
    <path d="M 847.17 390.04 
L 847.17 223.426574 
" style="fill:none;stroke:#000000;stroke-linecap:square;stroke-linejoin:miter;stroke-width:0.8;"/>
   </g>
   <g id="patch_12">
    <path d="M 49.97 390.04 
L 847.17 390.04 
" style="fill:none;stroke:#000000;stroke-linecap:square;stroke-linejoin:miter;stroke-width:0.8;"/>
   </g>
   <g id="patch_13">
    <path d="M 49.97 223.426574 
L 847.17 223.426574 
" style="fill:none;stroke:#000000;stroke-linecap:square;stroke-linejoin:miter;stroke-width:0.8;"/>
   </g>
   <g id="legend_2">
    <g id="patch_14">
     <path d="M 635.580938 263.026574 
L 842.17 263.026574 
Q 844.17 263.026574 844.17 261.026574 
L 844.17 232.426574 
Q 844.17 230.426574 842.17 230.426574 
L 635.580938 230.426574 
Q 633.580938 230.426574 633.580938 232.426574 
L 633.580938 261.026574 
Q 633.580938 263.026574 635.580938 263.026574 
z
" style="fill:#4c4c4c;opacity:0.5;stroke:#4c4c4c;stroke-linejoin:miter;"/>
    </g>
    <g id="patch_15">
     <path d="M 633.580938 261.026574 
L 840.17 261.026574 
Q 842.17 261.026574 842.17 259.026574 
L 842.17 230.426574 
Q 842.17 228.426574 840.17 228.426574 
L 633.580938 228.426574 
Q 631.580938 228.426574 631.580938 230.426574 
L 631.580938 259.026574 
Q 631.580938 261.026574 633.580938 261.026574 
z
" style="fill:#ffffff;stroke:#000000;stroke-linejoin:miter;"/>
    </g>
    <g id="line2d_53">
     <path d="M 635.580938 236.578137 
L 655.580938 236.578137 
" style="fill:none;stroke:#ff0000;stroke-linecap:square;stroke-width:2;"/>
    </g>
    <g id="line2d_54">
     <g>
      <use style="fill:#ff0000;stroke:#000000;stroke-linejoin:miter;" x="645.580938" xlink:href="#m2403e028ae" y="236.578137"/>
     </g>
    </g>
    <g id="text_28">
     <!-- PDRWS N:8192 pad:32 grain:128 -->
     <g transform="translate(663.580938 240.078137)scale(0.1 -0.1)">
      <use xlink:href="#DejaVuSansMono-50"/>
      <use x="60.205078" xlink:href="#DejaVuSansMono-44"/>
      <use x="120.410156" xlink:href="#DejaVuSansMono-52"/>
      <use x="180.615234" xlink:href="#DejaVuSansMono-57"/>
      <use x="240.820312" xlink:href="#DejaVuSansMono-53"/>
      <use x="301.025391" xlink:href="#DejaVuSansMono-20"/>
      <use x="361.230469" xlink:href="#DejaVuSansMono-4e"/>
      <use x="421.435547" xlink:href="#DejaVuSansMono-3a"/>
      <use x="481.640625" xlink:href="#DejaVuSansMono-38"/>
      <use x="541.845703" xlink:href="#DejaVuSansMono-31"/>
      <use x="602.050781" xlink:href="#DejaVuSansMono-39"/>
      <use x="662.255859" xlink:href="#DejaVuSansMono-32"/>
      <use x="722.460938" xlink:href="#DejaVuSansMono-20"/>
      <use x="782.666016" xlink:href="#DejaVuSansMono-70"/>
      <use x="842.871094" xlink:href="#DejaVuSansMono-61"/>
      <use x="903.076172" xlink:href="#DejaVuSansMono-64"/>
      <use x="963.28125" xlink:href="#DejaVuSansMono-3a"/>
      <use x="1023.486328" xlink:href="#DejaVuSansMono-33"/>
      <use x="1083.691406" xlink:href="#DejaVuSansMono-32"/>
      <use x="1143.896484" xlink:href="#DejaVuSansMono-20"/>
      <use x="1204.101562" xlink:href="#DejaVuSansMono-67"/>
      <use x="1264.306641" xlink:href="#DejaVuSansMono-72"/>
      <use x="1324.511719" xlink:href="#DejaVuSansMono-61"/>
      <use x="1384.716797" xlink:href="#DejaVuSansMono-69"/>
      <use x="1444.921875" xlink:href="#DejaVuSansMono-6e"/>
      <use x="1505.126953" xlink:href="#DejaVuSansMono-3a"/>
      <use x="1565.332031" xlink:href="#DejaVuSansMono-31"/>
      <use x="1625.537109" xlink:href="#DejaVuSansMono-32"/>
      <use x="1685.742188" xlink:href="#DejaVuSansMono-38"/>
     </g>
    </g>
    <g id="line2d_55">
     <path d="M 635.580938 251.378137 
L 655.580938 251.378137 
" style="fill:none;stroke:#0000ff;stroke-linecap:square;stroke-width:2;"/>
    </g>
    <g id="line2d_56">
     <g>
      <use style="fill:#0000ff;stroke:#000000;stroke-linejoin:miter;" x="645.580938" xlink:href="#mde068f3c8c" y="251.378137"/>
     </g>
    </g>
    <g id="text_29">
     <!-- QUEUE N:8192 pad:32 grain:128 -->
     <g transform="translate(663.580938 254.878137)scale(0.1 -0.1)">
      <use xlink:href="#DejaVuSansMono-51"/>
      <use x="60.205078" xlink:href="#DejaVuSansMono-55"/>
      <use x="120.410156" xlink:href="#DejaVuSansMono-45"/>
      <use x="180.615234" xlink:href="#DejaVuSansMono-55"/>
      <use x="240.820312" xlink:href="#DejaVuSansMono-45"/>
      <use x="301.025391" xlink:href="#DejaVuSansMono-20"/>
      <use x="361.230469" xlink:href="#DejaVuSansMono-4e"/>
      <use x="421.435547" xlink:href="#DejaVuSansMono-3a"/>
      <use x="481.640625" xlink:href="#DejaVuSansMono-38"/>
      <use x="541.845703" xlink:href="#DejaVuSansMono-31"/>
      <use x="602.050781" xlink:href="#DejaVuSansMono-39"/>
      <use x="662.255859" xlink:href="#DejaVuSansMono-32"/>
      <use x="722.460938" xlink:href="#DejaVuSansMono-20"/>
      <use x="782.666016" xlink:href="#DejaVuSansMono-70"/>
      <use x="842.871094" xlink:href="#DejaVuSansMono-61"/>
      <use x="903.076172" xlink:href="#DejaVuSansMono-64"/>
      <use x="963.28125" xlink:href="#DejaVuSansMono-3a"/>
      <use x="1023.486328" xlink:href="#DejaVuSansMono-33"/>
      <use x="1083.691406" xlink:href="#DejaVuSansMono-32"/>
      <use x="1143.896484" xlink:href="#DejaVuSansMono-20"/>
      <use x="1204.101562" xlink:href="#DejaVuSansMono-67"/>
      <use x="1264.306641" xlink:href="#DejaVuSansMono-72"/>
      <use x="1324.511719" xlink:href="#DejaVuSansMono-61"/>
      <use x="1384.716797" xlink:href="#DejaVuSansMono-69"/>
      <use x="1444.921875" xlink:href="#DejaVuSansMono-6e"/>
      <use x="1505.126953" xlink:href="#DejaVuSansMono-3a"/>
      <use x="1565.332031" xlink:href="#DejaVuSansMono-31"/>
      <use x="1625.537109" xlink:href="#DejaVuSansMono-32"/>
      <use x="1685.742188" xlink:href="#DejaVuSansMono-38"/>
     </g>
    </g>
   </g>
  </g>
  <g id="text_30">
   <!-- Intel Xeon E5-2699 v3 @ 2.30GHz AVX 2015-11-21 -->
   <defs>
    <path d="M 9.8125 72.90625 
L 50.296875 72.90625 
L 50.296875 64.59375 
L 35.015625 64.59375 
L 35.015625 8.296875 
L 50.296875 8.296875 
L 50.296875 0 
L 9.8125 0 
L 9.8125 8.296875 
L 25.09375 8.296875 
L 25.09375 64.59375 
L 9.8125 64.59375 
z
" id="DejaVuSansMono-49"/>
    <path d="M 31.203125 19.828125 
Q 31.203125 13.765625 33.421875 10.6875 
Q 35.640625 7.625 39.984375 7.625 
L 50.484375 7.625 
L 50.484375 0 
L 39.109375 0 
Q 31.0625 0 26.640625 5.171875 
Q 22.21875 10.359375 22.21875 19.828125 
L 22.21875 69.484375 
L 7.8125 69.484375 
L 7.8125 76.515625 
L 31.203125 76.515625 
z
" id="DejaVuSansMono-6c"/>
    <path d="M 4.203125 72.90625 
L 14.796875 72.90625 
L 30.8125 45.40625 
L 47.125 72.90625 
L 57.71875 72.90625 
L 35.890625 38.625 
L 59.28125 0 
L 48.6875 0 
L 30.8125 31.390625 
L 11.53125 0 
L 0.875 0 
L 25.296875 38.625 
z
" id="DejaVuSansMono-58"/>
    <path d="M 17.390625 31.390625 
L 42.828125 31.390625 
L 42.828125 23.390625 
L 17.390625 23.390625 
z
" id="DejaVuSansMono-2d"/>
    <path d="M 4.890625 54.6875 
L 14.203125 54.6875 
L 30.078125 8.796875 
L 46 54.6875 
L 55.328125 54.6875 
L 35.890625 0 
L 24.3125 0 
z
" id="DejaVuSansMono-76"/>
    <path d="M 50.6875 26.609375 
Q 50.6875 32.90625 47.5625 36.6875 
Q 44.4375 40.484375 39.203125 40.484375 
Q 33.984375 40.484375 30.828125 36.6875 
Q 27.6875 32.90625 27.6875 26.609375 
Q 27.6875 20.265625 30.828125 16.484375 
Q 33.984375 12.703125 39.203125 12.703125 
Q 44.4375 12.703125 47.5625 16.484375 
Q 50.6875 20.265625 50.6875 26.609375 
z
M 57.515625 6.59375 
L 50.484375 6.59375 
L 50.484375 12.015625 
Q 48.6875 8.9375 45.484375 7.265625 
Q 42.28125 5.609375 38.28125 5.609375 
Q 30.421875 5.609375 25.265625 11.515625 
Q 20.125 17.4375 20.125 26.609375 
Q 20.125 35.796875 25.265625 41.703125 
Q 30.421875 47.609375 38.28125 47.609375 
Q 42.1875 47.609375 45.453125 45.890625 
Q 48.734375 44.1875 50.484375 41.21875 
L 50.484375 44.28125 
Q 50.484375 51.90625 46.1875 56.546875 
Q 41.890625 61.1875 34.8125 61.1875 
Q 22.796875 61.1875 15.6875 51.828125 
Q 8.59375 42.484375 8.59375 26.515625 
Q 8.59375 10.453125 16.640625 0.921875 
Q 24.703125 -8.59375 38.09375 -8.59375 
Q 40.71875 -8.59375 43.359375 -8.109375 
Q 46 -7.625 48.78125 -6.59375 
L 51.125 -13.1875 
Q 48.046875 -14.40625 45.046875 -14.984375 
Q 42.046875 -15.578125 39.203125 -15.578125 
Q 21.78125 -15.578125 11.546875 -4.203125 
Q 1.3125 7.171875 1.3125 26.515625 
Q 1.3125 45.5625 10.484375 56.828125 
Q 19.671875 68.109375 35.109375 68.109375 
Q 45.3125 68.109375 51.40625 61.609375 
Q 57.515625 55.125 57.515625 44.1875 
z
" id="DejaVuSansMono-40"/>
    <path d="M 23.875 14.890625 
L 36.1875 14.890625 
L 36.1875 0 
L 23.875 0 
z
" id="DejaVuSansMono-2e"/>
    <path d="M 6.6875 72.90625 
L 16.609375 72.90625 
L 16.609375 43.015625 
L 43.609375 43.015625 
L 43.609375 72.90625 
L 53.515625 72.90625 
L 53.515625 0 
L 43.609375 0 
L 43.609375 34.71875 
L 16.609375 34.71875 
L 16.609375 0 
L 6.6875 0 
z
" id="DejaVuSansMono-48"/>
    <path d="M 11.078125 54.78125 
L 50.78125 54.78125 
L 50.78125 46.578125 
L 19.390625 7.328125 
L 50.78125 7.328125 
L 50.78125 0 
L 9.90625 0 
L 9.90625 8.296875 
L 41.3125 47.609375 
L 11.078125 47.609375 
z
" id="DejaVuSansMono-7a"/>
    <path d="M 30.078125 64.203125 
L 19.671875 26.90625 
L 40.484375 26.90625 
z
M 24.125 72.90625 
L 36.078125 72.90625 
L 58.40625 0 
L 48.1875 0 
L 42.828125 19 
L 17.28125 19 
L 12.015625 0 
L 1.8125 0 
z
" id="DejaVuSansMono-41"/>
    <path d="M 30.078125 8.296875 
L 47.21875 72.90625 
L 57.421875 72.90625 
L 36.078125 0 
L 24.125 0 
L 2.78125 72.90625 
L 12.984375 72.90625 
z
" id="DejaVuSansMono-56"/>
   </defs>
   <g transform="translate(265.839375 17.821875)scale(0.12 -0.12)">
    <use xlink:href="#DejaVuSansMono-49"/>
    <use x="60.205078" xlink:href="#DejaVuSansMono-6e"/>
    <use x="120.410156" xlink:href="#DejaVuSansMono-74"/>
    <use x="180.615234" xlink:href="#DejaVuSansMono-65"/>
    <use x="240.820312" xlink:href="#DejaVuSansMono-6c"/>
    <use x="301.025391" xlink:href="#DejaVuSansMono-20"/>
    <use x="361.230469" xlink:href="#DejaVuSansMono-58"/>
    <use x="421.435547" xlink:href="#DejaVuSansMono-65"/>
    <use x="481.640625" xlink:href="#DejaVuSansMono-6f"/>
    <use x="541.845703" xlink:href="#DejaVuSansMono-6e"/>
    <use x="602.050781" xlink:href="#DejaVuSansMono-20"/>
    <use x="662.255859" xlink:href="#DejaVuSansMono-45"/>
    <use x="722.460938" xlink:href="#DejaVuSansMono-35"/>
    <use x="782.666016" xlink:href="#DejaVuSansMono-2d"/>
    <use x="842.871094" xlink:href="#DejaVuSansMono-32"/>
    <use x="903.076172" xlink:href="#DejaVuSansMono-36"/>
    <use x="963.28125" xlink:href="#DejaVuSansMono-39"/>
    <use x="1023.486328" xlink:href="#DejaVuSansMono-39"/>
    <use x="1083.691406" xlink:href="#DejaVuSansMono-20"/>
    <use x="1143.896484" xlink:href="#DejaVuSansMono-76"/>
    <use x="1204.101562" xlink:href="#DejaVuSansMono-33"/>
    <use x="1264.306641" xlink:href="#DejaVuSansMono-20"/>
    <use x="1324.511719" xlink:href="#DejaVuSansMono-40"/>
    <use x="1384.716797" xlink:href="#DejaVuSansMono-20"/>
    <use x="1444.921875" xlink:href="#DejaVuSansMono-32"/>
    <use x="1505.126953" xlink:href="#DejaVuSansMono-2e"/>
    <use x="1565.332031" xlink:href="#DejaVuSansMono-33"/>
    <use x="1625.537109" xlink:href="#DejaVuSansMono-30"/>
    <use x="1685.742188" xlink:href="#DejaVuSansMono-47"/>
    <use x="1745.947266" xlink:href="#DejaVuSansMono-48"/>
    <use x="1806.152344" xlink:href="#DejaVuSansMono-7a"/>
    <use x="1866.357422" xlink:href="#DejaVuSansMono-20"/>
    <use x="1926.5625" xlink:href="#DejaVuSansMono-41"/>
    <use x="1986.767578" xlink:href="#DejaVuSansMono-56"/>
    <use x="2046.972656" xlink:href="#DejaVuSansMono-58"/>
    <use x="2107.177734" xlink:href="#DejaVuSansMono-20"/>
    <use x="2167.382812" xlink:href="#DejaVuSansMono-32"/>
    <use x="2227.587891" xlink:href="#DejaVuSansMono-30"/>
    <use x="2287.792969" xlink:href="#DejaVuSansMono-31"/>
    <use x="2347.998047" xlink:href="#DejaVuSansMono-35"/>
    <use x="2408.203125" xlink:href="#DejaVuSansMono-2d"/>
    <use x="2468.408203" xlink:href="#DejaVuSansMono-31"/>
    <use x="2528.613281" xlink:href="#DejaVuSansMono-31"/>
    <use x="2588.818359" xlink:href="#DejaVuSansMono-2d"/>
    <use x="2649.023438" xlink:href="#DejaVuSansMono-32"/>
    <use x="2709.228516" xlink:href="#DejaVuSansMono-31"/>
   </g>
  </g>
 </g>
 <defs>
  <clipPath id="p2064481b4b">
   <rect height="166.613426" width="797.2" x="49.97" y="25.92"/>
  </clipPath>
  <clipPath id="p59886ffa5f">
   <rect height="166.613426" width="797.2" x="49.97" y="223.426574"/>
  </clipPath>
 </defs>
</svg>
